<svg xmlns="http://www.w3.org/2000/svg" version="1.1" xmlns:xlink="http://www.w3.org/1999/xlink" xmlns:svgjs="http://svgjs.dev/svgjs" width="1000" height="502" viewBox="0 0 1000 502"><g transform="matrix(1,0,0,1,-0.6060445664049894,0.006664382986031114)"><svg viewBox="0 0 396 199" data-background-color="#ffffff" preserveAspectRatio="xMidYMid meet" height="502" width="1000" xmlns="http://www.w3.org/2000/svg" xmlns:xlink="http://www.w3.org/1999/xlink"><g id="tight-bounds" transform="matrix(1,0,0,1,0.2399936482963767,-0.0026418570004409503)"><svg viewBox="0 0 395.52 199.00528134154962" height="199.00528134154962" width="395.52"><g><svg viewBox="0 0 395.52 199.00528134154962" height="199.00528134154962" width="395.52"><g><svg viewBox="0 0 395.52 199.00528134154962" height="199.00528134154962" width="395.52"><g id="textblocktransform"><svg viewBox="0 0 395.52 199.00528134154962" height="199.00528134154962" width="395.52" id="textblock"><g><svg viewBox="0 0 395.52 199.00528134154962" height="199.00528134154962" width="395.52"><g transform="matrix(1,0,0,1,0,0)"><svg width="395.52" viewBox="-0.24000000953674316 -37.66800308227539 76.30999755859375 38.39800262451172" height="199.00528134154962" data-palette-color="#6936f5"><g class="wordmark-text-0" data-fill-palette-color="primary" id="text-0"><path d="M28.17-18.7L28.37-18.7Q28.47-18.36 28.76-17.97 29.05-17.58 29.05-17.38L29.05-17.38Q28.66-16.46 28.47-15.94 28.27-15.43 27.83-15.04L27.83-15.04Q27.83-14.89 27.54-14.4 27.25-13.92 26.88-13.35 26.51-12.79 26.15-12.28 25.78-11.77 25.68-11.57L25.68-11.57Q25.44-11.18 25.29-10.82 25.15-10.45 24.95-10.11L24.95-10.11Q24.51-9.33 24.05-8.64 23.58-7.96 23.19-7.13L23.19-7.13Q22.95-6.88 22.75-6.59 22.56-6.3 22.31-6.05L22.31-6.05Q21.73-4.98 20.97-4.05 20.21-3.13 19.58-2L19.58-2Q20.12-1.46 20.12-0.63L20.12-0.63Q20.12-0.2 19.87-0.17 19.63-0.15 19.43-0.05L19.43-0.05Q18.95 0.29 18.55 0.34 18.16 0.39 17.92 0.39L17.92 0.39Q17.38 0.39 16.75 0.37 16.11 0.34 15.67 0.44L15.67 0.44Q15.53 0.49 15.33 0.61 15.14 0.73 15.04 0.73L15.04 0.73Q14.65 0.73 14.48 0.61 14.31 0.49 14.01 0.39L14.01 0.39Q13.62-0.05 13.31-0.54 12.99-1.03 12.65-1.51L12.65-1.51Q12.35-1.86 12.01-2.12 11.67-2.39 11.38-2.78L11.38-2.78Q10.6-3.91 9.79-4.93 8.98-5.96 8.15-6.98L8.15-6.98Q7.76-7.52 7.3-8.01 6.84-8.5 6.45-8.98L6.45-8.98Q6.05-9.52 5.71-10.11 5.37-10.69 4.98-11.23L4.98-11.23Q4.69-11.72 4.15-12.43 3.61-13.13 3.03-13.87 2.44-14.6 1.83-15.26 1.22-15.92 0.78-16.26L0.78-16.26Q0.78-16.6 0.59-16.75 0.39-16.89 0.15-17.09L0.15-17.09Q0.05-17.33-0.1-17.55-0.24-17.77-0.24-18.07L-0.24-18.07Q-0.24-18.41-0.1-18.7L-0.1-18.7Q0-18.9 0.02-19.07 0.05-19.24 0.15-19.43L0.15-19.43Q0.39-20.07 0.85-20.56 1.32-21.04 1.56-21.68L1.56-21.68Q1.61-21.88 1.61-22.05 1.61-22.22 1.71-22.41L1.71-22.41Q1.86-22.75 2.15-23.02 2.44-23.29 2.69-23.63L2.69-23.63Q2.93-24.07 3.17-24.51 3.42-24.95 3.66-25.39L3.66-25.39Q4.35-26.51 5.18-27.56 6.01-28.61 6.74-29.64L6.74-29.64Q7.42-30.62 8.01-31.57 8.59-32.52 9.28-33.5L9.28-33.5Q9.62-33.98 10.06-34.59 10.5-35.21 10.96-35.79 11.43-36.38 11.91-36.89 12.4-37.4 12.89-37.65L12.89-37.65Q13.72-37.74 13.96-37.38 14.21-37.01 14.65-37.01L14.65-37.01Q15.33-36.87 15.58-36.57 15.82-36.28 16.06-36.04L16.06-36.04Q16.7-36.04 17.14-35.79 17.58-35.55 18.02-35.06L18.02-35.06Q17.82-34.52 17.5-34.08 17.19-33.64 16.94-33.15L16.94-33.15Q16.55-33.01 16.38-32.67 16.21-32.32 15.87-32.08L15.87-32.08Q15.33-31.25 14.79-30.44 14.26-29.64 13.72-28.91L13.72-28.91Q13.48-28.61 13.18-28.44 12.89-28.27 12.65-27.93L12.65-27.93Q12.55-27.78 12.5-27.61 12.45-27.44 12.35-27.29L12.35-27.29Q11.77-26.37 11.04-25.49 10.3-24.61 9.77-23.63L9.77-23.63Q9.52-23.29 9.38-22.92 9.23-22.56 9.03-22.22L9.03-22.22Q8.84-21.88 8.47-21.36 8.11-20.85 7.74-20.31 7.37-19.78 7.1-19.24 6.84-18.7 6.84-18.36L6.84-18.36Q6.88-18.12 7.47-17.38 8.06-16.65 8.79-15.82 9.52-14.99 10.18-14.23 10.84-13.48 10.99-13.33L10.99-13.33Q11.08-13.09 11.72-12.28 12.35-11.47 13.16-10.52 13.96-9.57 14.75-8.69 15.53-7.81 15.82-7.42L15.82-7.42 16.21-6.79Q16.31-6.84 16.72-7.47 17.14-8.11 17.58-8.89 18.02-9.67 18.38-10.35 18.75-11.04 18.85-11.23L18.85-11.23Q18.99-11.38 19.34-12.01 19.68-12.65 20.09-13.38 20.51-14.11 20.83-14.75 21.14-15.38 21.19-15.58L21.19-15.58 20.61-15.58Q19.82-15.58 19.07-15.5 18.31-15.43 17.53-15.19L17.53-15.19Q17.19-15.23 16.94-15.38 16.7-15.53 16.36-15.67L16.36-15.67Q16.21-16.16 16.24-16.36 16.26-16.55 16.21-16.65L16.21-16.65Q16.16-16.85 16.09-16.94 16.02-17.04 16.02-17.24L16.02-17.24Q16.02-17.58 15.92-17.8 15.82-18.02 15.72-18.31L15.72-18.31Q15.72-18.51 15.75-18.7 15.77-18.9 15.67-19.04L15.67-19.04Q15.77-19.92 15.53-20.31L15.53-20.31Q15.53-21 15.72-21.19 15.92-21.39 16.02-21.78L16.02-21.78Q16.46-21.63 16.77-21.85 17.09-22.07 17.43-22.07L17.43-22.07Q18.21-22.07 18.7-22.31L18.7-22.31Q19.14-22.36 19.6-22.36 20.07-22.36 20.51-22.46L20.51-22.46Q20.75-22.51 20.92-22.56 21.09-22.61 21.34-22.66L21.34-22.66Q21.63-22.71 21.97-22.71 22.31-22.71 22.61-22.71L22.61-22.71Q23.39-22.8 24.17-22.83 24.95-22.85 25.73-22.9L25.73-22.9Q25.98-22.8 26.2-22.75 26.42-22.71 26.61-22.61L26.61-22.61Q26.76-22.51 26.86-22.39 26.95-22.27 27.2-22.22L27.2-22.22Q27.44-21.97 27.54-21.73L27.54-21.73Q27.44-21.29 27.59-21.09L27.59-21.09Q27.34-20.85 27.32-20.43 27.29-20.02 27.25-19.68L27.25-19.68Q27.59-19.58 27.83-19.14 28.08-18.7 28.17-18.7L28.17-18.7ZM55.76-19.38L55.76-19.38Q55.66-19.19 55.56-19.02 55.47-18.85 55.42-18.65L55.42-18.65Q55.61-18.46 55.78-18.24 55.95-18.02 55.95-17.77L55.95-17.77Q55.95-17.58 55.88-17.41 55.81-17.24 55.86-17.09L55.86-17.09Q55.66-16.75 55.44-16.46 55.22-16.16 55.12-15.82L55.12-15.82Q54.93-15.63 54.81-15.43 54.69-15.23 54.59-15.04L54.59-15.04Q54.34-14.94 54.27-14.72 54.2-14.5 54-14.36L54-14.36Q53.95-14.16 53.51-13.43 53.07-12.7 52.54-11.87 52-11.04 51.51-10.25 51.02-9.47 50.83-9.23L50.83-9.23Q50.73-8.98 50.61-8.84 50.49-8.69 50.34-8.5L50.34-8.5Q50.24-8.35 50.19-8.18 50.14-8.01 50.05-7.91L50.05-7.91Q49.95-7.71 49.83-7.57 49.7-7.42 49.61-7.18L49.61-7.18Q49.12-6.54 48.63-5.66 48.14-4.79 47.7-4.1L47.7-4.1Q47.46-3.71 47.24-3.32 47.02-2.93 46.77-2.54L46.77-2.54Q46.53-2.15 46.29-1.81 46.04-1.46 45.8-1.07L45.8-1.07Q45.41-0.78 45.11-0.37 44.82 0.05 44.43 0.34L44.43 0.34Q43.8 0.34 43.65-0.24L43.65-0.24Q43.02-0.39 43.02-0.24 43.02-0.1 43.02 0L43.02 0Q42.82 0.1 42.75 0.29 42.67 0.49 42.48 0.59L42.48 0.59Q42.09 0.49 41.82 0.27 41.55 0.05 41.06 0.1L41.06 0.1Q40.87-0.2 40.62-0.42 40.38-0.63 40.18-0.88L40.18-0.88Q40.09-1.17 39.91-1.37 39.74-1.56 39.6-1.76L39.6-1.76Q39.45-2 39.3-2.2 39.16-2.39 39.01-2.59L39.01-2.59Q38.67-3.03 38.35-3.44 38.03-3.86 37.79-4.3L37.79-4.3Q37.4-4.88 37.03-5.49 36.67-6.1 36.28-6.69L36.28-6.69Q36.08-6.98 35.89-7.28 35.69-7.57 35.54-7.86L35.54-7.86Q35.45-8.11 35.28-8.45 35.1-8.79 34.86-8.89L34.86-8.89Q34.76-9.28 34.52-9.47 34.27-9.67 34.03-9.96L34.03-9.96Q33.69-10.35 33.4-10.82 33.1-11.28 32.81-11.77L32.81-11.77Q31.83-13.13 30.98-14.45 30.12-15.77 29.29-17.19L29.29-17.19Q29.54-17.97 29.54-18.36 29.54-18.75 29.78-18.99L29.78-18.99Q29.78-19.19 29.88-19.58L29.88-19.58Q30.52-20.65 31.1-21.53L31.1-21.53Q31.64-22.36 31.86-22.9 32.08-23.44 32.32-24.02L32.32-24.02Q32.57-24.17 32.71-24.39 32.86-24.61 33.1-24.8L33.1-24.8Q33.2-25.34 33.54-25.71 33.88-26.07 33.98-26.61L33.98-26.61Q34.42-26.95 34.47-27.39L34.47-27.39Q35.1-27.83 35.25-28.56L35.25-28.56Q35.64-28.96 35.91-29.44 36.18-29.93 36.42-30.47L36.42-30.47Q37.01-30.96 37.35-31.74L37.35-31.74Q37.64-31.93 37.79-32.28 37.94-32.62 38.18-32.86L38.18-32.86Q38.57-33.5 38.79-33.91 39.01-34.33 39.26-34.77L39.26-34.77Q39.6-34.77 39.69-35.01 39.79-35.25 40.09-35.21L40.09-35.21Q40.09-35.64 40.33-35.99L40.33-35.99Q40.43-36.04 40.62-36.11 40.82-36.18 40.82-36.28L40.82-36.28Q40.72-36.87 40.87-36.96 41.01-37.06 41.11-37.16L41.11-37.16Q41.65-37.06 41.84-37.01 42.04-36.96 42.48-36.67L42.48-36.67Q42.97-36.67 43.16-36.47 43.36-36.28 43.6-36.18L43.6-36.18Q43.8-35.99 43.92-35.79 44.04-35.6 44.28-35.5L44.28-35.5Q44.68-34.96 45.11-34.33 45.55-33.69 45.94-33.15L45.94-33.15Q46.48-32.42 47.04-31.76 47.6-31.1 48.09-30.32L48.09-30.32Q48.24-30.08 48.63-29.47 49.02-28.86 49.51-28.17 50-27.49 50.39-26.93 50.78-26.37 50.93-26.27L50.93-26.27Q51.07-26.03 51.56-25.34 52.05-24.66 52.61-23.9 53.17-23.14 53.71-22.46 54.25-21.78 54.44-21.58L54.44-21.58Q54.98-20.85 55.25-20.39 55.52-19.92 55.76-19.38ZM44.58-10.21L44.58-10.21Q45.11-10.94 45.41-11.52 45.7-12.11 45.99-12.7L45.99-12.7Q46.48-13.28 46.58-13.53 46.68-13.77 46.82-14.01L46.82-14.01Q47.21-14.6 47.63-15.19 48.04-15.77 48.29-16.46L48.29-16.46Q48.58-16.65 48.73-16.94 48.87-17.24 49.17-17.48L49.17-17.48Q48.87-18.51 48.48-19.07 48.09-19.63 47.7-20.17L47.7-20.17Q47.56-20.41 47.41-20.65 47.26-20.9 47.12-21.14L47.12-21.14Q46.92-21.29 46.8-21.44 46.68-21.58 46.53-21.73L46.53-21.73Q46.43-21.97 46.24-22.36L46.24-22.36Q46.04-22.61 45.85-22.8 45.65-23 45.51-23.29L45.51-23.29Q45.31-23.49 45.02-23.83 44.72-24.17 44.41-24.58 44.09-25 43.85-25.37 43.6-25.73 43.45-25.98L43.45-25.98Q43.36-26.22 43.28-26.39 43.21-26.56 43.11-26.76L43.11-26.76Q42.87-27.1 42.62-27.37 42.38-27.64 42.14-27.98L42.14-27.98Q41.99-27.88 41.87-27.86 41.75-27.83 41.65-27.73L41.65-27.73Q41.31-27.1 40.89-26.56 40.48-26.03 40.09-25.39L40.09-25.39Q39.74-24.8 39.4-24.19 39.06-23.58 38.72-23L38.72-23Q38.47-22.66 38.25-22.34 38.03-22.02 37.79-21.63L37.79-21.63Q37.55-21.29 37.38-20.92 37.2-20.56 36.96-20.21L36.96-20.21Q36.57-19.73 36.33-19.34 36.08-18.95 35.84-18.41L35.84-18.41Q35.98-18.12 36.3-17.6 36.62-17.09 36.96-16.58 37.3-16.06 37.57-15.63 37.84-15.19 37.89-15.04L37.89-15.04Q38.28-14.7 38.52-14.28 38.77-13.87 39.16-13.48L39.16-13.48Q39.35-13.09 39.6-12.79 39.84-12.5 40.09-12.16L40.09-12.16Q40.33-11.82 40.72-11.16 41.11-10.5 41.5-9.81 41.89-9.13 42.28-8.54 42.67-7.96 42.92-7.81L42.92-7.81Q43.41-8.35 43.72-9.01 44.04-9.67 44.58-10.21ZM66.94-13.33L66.94-13.33Q67.04-13.09 67.67-12.28 68.31-11.47 69.11-10.52 69.92-9.57 70.7-8.69 71.48-7.81 71.77-7.42L71.77-7.42Q72.7-6.05 73.68-4.74 74.65-3.42 75.53-2L75.53-2Q75.78-1.76 75.92-1.39 76.07-1.03 76.07-0.63L76.07-0.63Q76.07-0.2 75.85-0.17 75.63-0.15 75.39-0.05L75.39-0.05Q74.9 0.29 74.51 0.34 74.12 0.39 73.87 0.39L73.87 0.39Q73.33 0.39 72.7 0.37 72.07 0.34 71.63 0.44L71.63 0.44Q71.48 0.49 71.28 0.61 71.09 0.73 70.99 0.73L70.99 0.73Q70.6 0.73 70.43 0.61 70.26 0.49 69.97 0.39L69.97 0.39Q69.58-0.05 69.26-0.54 68.94-1.03 68.6-1.51L68.6-1.51Q68.31-1.86 67.96-2.12 67.62-2.39 67.33-2.78L67.33-2.78Q66.55-3.91 65.74-4.93 64.94-5.96 64.11-6.98L64.11-6.98Q63.72-7.52 63.25-8.01 62.79-8.5 62.4-8.98L62.4-8.98Q62.01-9.52 61.66-10.11 61.32-10.69 60.93-11.23L60.93-11.23Q60.64-11.72 60.1-12.43 59.57-13.13 58.98-13.87 58.39-14.6 57.78-15.26 57.17-15.92 56.73-16.26L56.73-16.26Q56.73-16.6 56.54-16.75 56.34-16.89 56.1-17.09L56.1-17.09Q56-17.33 55.85-17.55 55.71-17.77 55.71-18.07L55.71-18.07Q55.71-18.26 55.76-18.41 55.81-18.55 55.85-18.7L55.85-18.7Q55.95-18.9 55.98-19.07 56-19.24 56.1-19.43L56.1-19.43Q56.34-20.07 56.81-20.56 57.27-21.04 57.51-21.68L57.51-21.68Q57.56-21.88 57.56-22.05 57.56-22.22 57.66-22.41L57.66-22.41Q57.81-22.71 58.1-23 58.39-23.29 58.64-23.63L58.64-23.63Q58.88-24.07 59.13-24.51 59.37-24.95 59.61-25.39L59.61-25.39Q60.3-26.51 61.13-27.56 61.96-28.61 62.69-29.64L62.69-29.64Q63.37-30.62 63.96-31.57 64.55-32.52 65.23-33.5L65.23-33.5Q65.57-33.98 66.01-34.59 66.45-35.21 66.91-35.79 67.38-36.38 67.87-36.89 68.35-37.4 68.84-37.65L68.84-37.65Q69.67-37.74 69.92-37.38 70.16-37.01 70.6-37.01L70.6-37.01Q71.28-36.87 71.53-36.57 71.77-36.28 72.02-36.04L72.02-36.04Q72.65-36.04 73.09-35.79 73.53-35.55 73.97-35.06L73.97-35.06Q73.77-34.52 73.46-34.08 73.14-33.64 72.9-33.15L72.9-33.15Q72.5-33.01 72.33-32.67 72.16-32.32 71.82-32.08L71.82-32.08Q71.28-31.25 70.75-30.44 70.21-29.64 69.67-28.91L69.67-28.91Q69.43-28.61 69.11-28.44 68.79-28.27 68.6-27.93L68.6-27.93Q68.5-27.78 68.45-27.61 68.4-27.44 68.31-27.29L68.31-27.29Q67.72-26.37 66.99-25.49 66.25-24.61 65.72-23.63L65.72-23.63Q65.47-23.29 65.33-22.92 65.18-22.56 64.99-22.22L64.99-22.22Q64.79-21.92 64.42-21.39 64.06-20.85 63.69-20.29 63.33-19.73 63.06-19.21 62.79-18.7 62.79-18.36L62.79-18.36Q62.84-18.12 63.42-17.38 64.01-16.65 64.72-15.82 65.42-14.99 66.08-14.26 66.74-13.53 66.94-13.33Z" fill="#6936f5" data-fill-palette-color="primary"></path></g></svg></g></svg></g></svg></g></svg></g></svg></g><defs></defs></svg><rect width="395.52" height="199.00528134154962" fill="none" stroke="none" visibility="hidden"></rect></g></svg></g></svg>